<?xml version="1.0" encoding="UTF-8"?>
<svg version="1.1" xmlns="http://www.w3.org/2000/svg" width="100" height="100">
<path d="M0 0 C0.10170678 6.70763142 0.17159405 13.41506279 0.21972656 20.12329102 C0.2397992 22.40364005 0.26706343 24.68393789 0.30175781 26.96411133 C0.35046609 30.24833842 0.37301286 33.53188292 0.390625 36.81640625 C0.41127014 37.83021866 0.43191528 38.84403107 0.45318604 39.88856506 C0.45561221 47.60150244 -1.21965764 52.57544525 -6.77734375 58.17578125 C-7.28458984 58.68931152 -7.79183594 59.2028418 -8.31445312 59.73193359 C-8.85005859 60.25352051 -9.38566406 60.77510742 -9.9375 61.3125 C-10.50017578 61.86502441 -11.06285156 62.41754883 -11.64257812 62.98681641 C-27.03736417 77.83056821 -27.03736417 77.83056821 -32.390625 78.13671875 C-36.3815624 76.39815171 -39.44438607 73.73569364 -42.75 70.9375 C-43.45866211 70.34694824 -44.16732422 69.75639648 -44.89746094 69.14794922 C-46.30273907 67.97259646 -47.70421944 66.7926857 -49.1015625 65.60791016 C-50.69217015 64.26072111 -52.29750859 62.93095058 -53.90625 61.60546875 C-54.6796875 60.95191406 -55.453125 60.29835938 -56.25 59.625 C-56.89453125 59.08101563 -57.5390625 58.53703125 -58.203125 57.9765625 C-64.12298939 51.46471168 -64.56035883 46.11254027 -64.390625 37.59765625 C-64.38496521 36.51995468 -64.37930542 35.44225311 -64.37347412 34.33189392 C-64.3511816 30.90830032 -64.30099671 27.48577436 -64.25 24.0625 C-64.22992587 21.73373913 -64.2116767 19.40496177 -64.1953125 17.07617188 C-64.15134022 11.38375369 -64.0844991 5.69195314 -64 0 C-45.02352844 -8.29421218 -18.82258976 -9.90362583 0 0 Z " fill="#1A92E7" transform="translate(82,14)"/>
<path d="M0 0 C9.06388626 -0.47888268 9.06388626 -0.47888268 12.51220703 1.28515625 C13.08825684 1.87167969 13.66430664 2.45820313 14.2578125 3.0625 C15.22460938 4.00996094 15.22460938 4.00996094 16.2109375 4.9765625 C17.15839844 5.97816406 17.15839844 5.97816406 18.125 7 C18.7953125 7.66773438 19.465625 8.33546875 20.15625 9.0234375 C21.79442444 10.66161194 23.40626445 12.31875272 25 14 C29.40886984 10.83441811 33.38620968 7.82119481 36.875 3.625 C39.18986786 1.20888544 40.386931 0.12368155 43.69140625 -0.54296875 C46.21033428 -0.56088431 48.52566165 -0.46785735 51 0 C53.01760631 2.01760631 52.18796291 6.10673322 52.203125 8.875 C52.20882507 9.67349365 52.21452515 10.4719873 52.22039795 11.29467773 C52.22986886 12.992825 52.23639019 14.69099083 52.24023438 16.38916016 C52.24985638 18.9616025 52.28082324 21.53321704 52.3125 24.10546875 C52.31903844 25.75780777 52.3242856 27.4101525 52.328125 29.0625 C52.3404718 29.82224121 52.3528186 30.58198242 52.36553955 31.36474609 C52.33675662 38.43182427 50.86840829 45.72803911 45.9375 51.0625 C45.17759766 51.91521484 45.17759766 51.91521484 44.40234375 52.78515625 C43 54 43 54 41 54 C40.67 42.12 40.34 30.24 40 18 C30.94787285 24.54533015 30.94787285 24.54533015 29.90234375 30.28125 C29.86979925 31.68717221 29.8815528 33.0948145 29.9375 34.5 C29.93041016 35.22703125 29.92332031 35.9540625 29.91601562 36.703125 C29.90439846 38.46893371 29.94644919 40.23496525 30 42 C27.03 42 24.06 42 21 42 C21.020625 40.9378125 21.04125 39.875625 21.0625 38.78125 C21.15367193 30.60810481 21.15367193 30.60810481 18.22265625 23.19140625 C15.66215589 20.66794749 13.21939525 18.60969762 10 17 C10 29.21 10 41.42 10 54 C0.53661078 45.88852353 0.53661078 45.88852353 -0.24081421 38.80618286 C-0.34601503 36.31273987 -0.33785689 33.84283828 -0.29296875 31.34765625 C-0.28872391 30.44752304 -0.28447906 29.54738983 -0.28010559 28.61997986 C-0.26341816 25.76717214 -0.22578497 22.91509137 -0.1875 20.0625 C-0.1724403 18.11915088 -0.15875415 16.17579061 -0.14648438 14.23242188 C-0.11354726 9.48800451 -0.0618344 4.74412517 0 0 Z " fill="#F8FBFD" transform="translate(24,19)"/>
<path d="M0 0 C7.09384751 0 12.67449428 0.26550885 19.375 1.875 C20.15488281 2.04902344 20.93476562 2.22304687 21.73828125 2.40234375 C25.45979237 3.26115401 28.59222516 4.25306345 32 6 C32.10170678 12.70763142 32.17159405 19.41506279 32.21972656 26.12329102 C32.2397992 28.40364005 32.26706343 30.68393789 32.30175781 32.96411133 C32.35046609 36.24833842 32.37301286 39.53188292 32.390625 42.81640625 C32.41127014 43.83021866 32.43191528 44.84403107 32.45318604 45.88856506 C32.45561221 53.60150244 30.78034236 58.57544525 25.22265625 64.17578125 C24.71524902 64.68931152 24.2078418 65.2028418 23.68505859 65.73193359 C23.14961426 66.25352051 22.61416992 66.77510742 22.0625 67.3125 C21.50127441 67.86502441 20.94004883 68.41754883 20.36181641 68.98681641 C16.37480351 72.83860118 12.23112854 76.44697281 7.875 79.875 C7.33109619 80.30981689 6.78719238 80.74463379 6.22680664 81.19262695 C4.6796875 82.3671875 4.6796875 82.3671875 2 84 C1.01 83.67 0.02 83.34 -1 83 C-0.67 73.1 -0.34 63.2 0 53 C1.32 53 2.64 53 4 53 C3.82597656 51.42412109 3.82597656 51.42412109 3.6484375 49.81640625 C2.79869744 38.68096704 2.79869744 38.68096704 6.19140625 33.93359375 C12.8869382 28 12.8869382 28 15 28 C15 40.21 15 52.42 15 65 C21.41164953 58.58835047 24.99756141 53.99378927 25.22705078 44.80883789 C25.2267388 43.2800741 25.21572035 41.75128385 25.1953125 40.22265625 C25.19106766 39.00563271 25.19106766 39.00563271 25.18673706 37.76402283 C25.17562663 35.19669247 25.15053971 32.62972322 25.125 30.0625 C25.11495836 28.31185403 25.10583459 26.56120254 25.09765625 24.81054688 C25.07571734 20.54022746 25.0412516 16.27017475 25 12 C17.95010113 11.3171393 17.95010113 11.3171393 11.7578125 14.3359375 C10.8528506 15.3245953 9.97485597 16.33859028 9.125 17.375 C6.21743153 20.68593057 4.05413235 22.97293382 0 25 C0 16.75 0 8.5 0 0 Z " fill="#076ABC" transform="translate(50,8)"/>
</svg>
